<mxfile host="app.diagrams.net" agent="Mozilla/5.0 (Windows NT 10.0; Win64; x64) AppleWebKit/537.36 (KHTML, like Gecko) Chrome/126.0.0.0 Safari/537.36" version="24.7.5">
  <diagram name="Seite-1" id="Aw4rMR1Ubbwp5jbNBniT">
    <mxGraphModel dx="2074" dy="1098" grid="1" gridSize="10" guides="1" tooltips="1" connect="1" arrows="1" fold="1" page="1" pageScale="1" pageWidth="827" pageHeight="1169" math="0" shadow="0">
      <root>
        <mxCell id="0" />
        <mxCell id="1" parent="0" />
        <mxCell id="s-OFZmNKzyaStpA8e9eA-1" value="table" style="group;verticalAlign=middle;fontSize=18;connectable=1;strokeWidth=0;perimeterSpacing=0;" parent="1" connectable="0" vertex="1">
          <mxGeometry x="640" y="40" width="120" height="60" as="geometry" />
        </mxCell>
        <mxCell id="s-OFZmNKzyaStpA8e9eA-2" value="" style="endArrow=none;html=1;rounded=0;" parent="s-OFZmNKzyaStpA8e9eA-1" edge="1">
          <mxGeometry width="50" height="50" relative="1" as="geometry">
            <mxPoint as="sourcePoint" />
            <mxPoint x="120" as="targetPoint" />
          </mxGeometry>
        </mxCell>
        <mxCell id="s-OFZmNKzyaStpA8e9eA-3" value="" style="endArrow=none;html=1;rounded=0;" parent="s-OFZmNKzyaStpA8e9eA-1" edge="1">
          <mxGeometry width="50" height="50" relative="1" as="geometry">
            <mxPoint y="60" as="sourcePoint" />
            <mxPoint x="120" y="60" as="targetPoint" />
          </mxGeometry>
        </mxCell>
        <mxCell id="s-OFZmNKzyaStpA8e9eA-4" value="" style="endArrow=none;html=1;rounded=0;" parent="s-OFZmNKzyaStpA8e9eA-1" edge="1">
          <mxGeometry width="50" height="50" relative="1" as="geometry">
            <mxPoint as="sourcePoint" />
            <mxPoint x="30" y="30" as="targetPoint" />
          </mxGeometry>
        </mxCell>
        <mxCell id="s-OFZmNKzyaStpA8e9eA-5" value="" style="endArrow=none;html=1;rounded=0;" parent="s-OFZmNKzyaStpA8e9eA-1" edge="1">
          <mxGeometry width="50" height="50" relative="1" as="geometry">
            <mxPoint y="60" as="sourcePoint" />
            <mxPoint x="30" y="30" as="targetPoint" />
          </mxGeometry>
        </mxCell>
        <mxCell id="s-OFZmNKzyaStpA8e9eA-6" value="" style="endArrow=none;html=1;rounded=0;" parent="s-OFZmNKzyaStpA8e9eA-1" edge="1">
          <mxGeometry width="50" height="50" relative="1" as="geometry">
            <mxPoint x="120" y="60" as="sourcePoint" />
            <mxPoint x="120" as="targetPoint" />
          </mxGeometry>
        </mxCell>
        <mxCell id="s-OFZmNKzyaStpA8e9eA-7" value="xvar" style="group;verticalAlign=middle;fontSize=18;connectable=1;strokeWidth=0;perimeterSpacing=0;" parent="1" connectable="0" vertex="1">
          <mxGeometry x="40" y="40" width="150" height="60" as="geometry" />
        </mxCell>
        <mxCell id="s-OFZmNKzyaStpA8e9eA-8" value="" style="endArrow=none;html=1;rounded=0;strokeWidth=1;" parent="s-OFZmNKzyaStpA8e9eA-7" edge="1">
          <mxGeometry width="50" height="50" relative="1" as="geometry">
            <mxPoint as="sourcePoint" />
            <mxPoint x="120" as="targetPoint" />
          </mxGeometry>
        </mxCell>
        <mxCell id="s-OFZmNKzyaStpA8e9eA-9" value="" style="endArrow=none;html=1;rounded=0;" parent="s-OFZmNKzyaStpA8e9eA-7" edge="1">
          <mxGeometry width="50" height="50" relative="1" as="geometry">
            <mxPoint y="60" as="sourcePoint" />
            <mxPoint x="120" y="60" as="targetPoint" />
          </mxGeometry>
        </mxCell>
        <mxCell id="s-OFZmNKzyaStpA8e9eA-10" value="" style="endArrow=none;html=1;rounded=0;" parent="s-OFZmNKzyaStpA8e9eA-7" edge="1">
          <mxGeometry width="50" height="50" relative="1" as="geometry">
            <mxPoint x="120" as="sourcePoint" />
            <mxPoint x="150" y="30" as="targetPoint" />
          </mxGeometry>
        </mxCell>
        <mxCell id="s-OFZmNKzyaStpA8e9eA-11" value="" style="endArrow=none;html=1;rounded=0;" parent="s-OFZmNKzyaStpA8e9eA-7" edge="1">
          <mxGeometry width="50" height="50" relative="1" as="geometry">
            <mxPoint x="120" y="60" as="sourcePoint" />
            <mxPoint x="150" y="30" as="targetPoint" />
          </mxGeometry>
        </mxCell>
        <mxCell id="s-OFZmNKzyaStpA8e9eA-12" value="" style="endArrow=none;html=1;rounded=0;" parent="s-OFZmNKzyaStpA8e9eA-7" edge="1">
          <mxGeometry width="50" height="50" relative="1" as="geometry">
            <mxPoint y="60" as="sourcePoint" />
            <mxPoint as="targetPoint" />
          </mxGeometry>
        </mxCell>
        <mxCell id="s-OFZmNKzyaStpA8e9eA-20" value="yvar" style="group;verticalAlign=middle;fontSize=18;connectable=1;strokeWidth=0;perimeterSpacing=0;" parent="1" connectable="0" vertex="1">
          <mxGeometry x="40" y="160" width="150" height="60" as="geometry" />
        </mxCell>
        <mxCell id="s-OFZmNKzyaStpA8e9eA-21" value="" style="endArrow=none;html=1;rounded=0;strokeWidth=1;" parent="s-OFZmNKzyaStpA8e9eA-20" edge="1">
          <mxGeometry width="50" height="50" relative="1" as="geometry">
            <mxPoint as="sourcePoint" />
            <mxPoint x="120" as="targetPoint" />
          </mxGeometry>
        </mxCell>
        <mxCell id="s-OFZmNKzyaStpA8e9eA-22" value="" style="endArrow=none;html=1;rounded=0;" parent="s-OFZmNKzyaStpA8e9eA-20" edge="1">
          <mxGeometry width="50" height="50" relative="1" as="geometry">
            <mxPoint y="60" as="sourcePoint" />
            <mxPoint x="120" y="60" as="targetPoint" />
          </mxGeometry>
        </mxCell>
        <mxCell id="s-OFZmNKzyaStpA8e9eA-23" value="" style="endArrow=none;html=1;rounded=0;" parent="s-OFZmNKzyaStpA8e9eA-20" edge="1">
          <mxGeometry width="50" height="50" relative="1" as="geometry">
            <mxPoint x="120" as="sourcePoint" />
            <mxPoint x="150" y="30" as="targetPoint" />
          </mxGeometry>
        </mxCell>
        <mxCell id="s-OFZmNKzyaStpA8e9eA-24" value="" style="endArrow=none;html=1;rounded=0;" parent="s-OFZmNKzyaStpA8e9eA-20" edge="1">
          <mxGeometry width="50" height="50" relative="1" as="geometry">
            <mxPoint x="120" y="60" as="sourcePoint" />
            <mxPoint x="150" y="30" as="targetPoint" />
          </mxGeometry>
        </mxCell>
        <mxCell id="s-OFZmNKzyaStpA8e9eA-25" value="" style="endArrow=none;html=1;rounded=0;" parent="s-OFZmNKzyaStpA8e9eA-20" edge="1">
          <mxGeometry width="50" height="50" relative="1" as="geometry">
            <mxPoint y="60" as="sourcePoint" />
            <mxPoint as="targetPoint" />
          </mxGeometry>
        </mxCell>
        <mxCell id="s-OFZmNKzyaStpA8e9eA-26" value="countries" style="group;verticalAlign=middle;fontSize=18;connectable=1;strokeWidth=0;perimeterSpacing=0;" parent="1" connectable="0" vertex="1">
          <mxGeometry x="40" y="280" width="150" height="60" as="geometry" />
        </mxCell>
        <mxCell id="s-OFZmNKzyaStpA8e9eA-27" value="" style="endArrow=none;html=1;rounded=0;strokeWidth=1;" parent="s-OFZmNKzyaStpA8e9eA-26" edge="1">
          <mxGeometry width="50" height="50" relative="1" as="geometry">
            <mxPoint as="sourcePoint" />
            <mxPoint x="120" as="targetPoint" />
          </mxGeometry>
        </mxCell>
        <mxCell id="s-OFZmNKzyaStpA8e9eA-28" value="" style="endArrow=none;html=1;rounded=0;" parent="s-OFZmNKzyaStpA8e9eA-26" edge="1">
          <mxGeometry width="50" height="50" relative="1" as="geometry">
            <mxPoint y="60" as="sourcePoint" />
            <mxPoint x="120" y="60" as="targetPoint" />
          </mxGeometry>
        </mxCell>
        <mxCell id="s-OFZmNKzyaStpA8e9eA-29" value="" style="endArrow=none;html=1;rounded=0;" parent="s-OFZmNKzyaStpA8e9eA-26" edge="1">
          <mxGeometry width="50" height="50" relative="1" as="geometry">
            <mxPoint x="120" as="sourcePoint" />
            <mxPoint x="150" y="30" as="targetPoint" />
          </mxGeometry>
        </mxCell>
        <mxCell id="s-OFZmNKzyaStpA8e9eA-30" value="" style="endArrow=none;html=1;rounded=0;" parent="s-OFZmNKzyaStpA8e9eA-26" edge="1">
          <mxGeometry width="50" height="50" relative="1" as="geometry">
            <mxPoint x="120" y="60" as="sourcePoint" />
            <mxPoint x="150" y="30" as="targetPoint" />
          </mxGeometry>
        </mxCell>
        <mxCell id="s-OFZmNKzyaStpA8e9eA-31" value="" style="endArrow=none;html=1;rounded=0;" parent="s-OFZmNKzyaStpA8e9eA-26" edge="1">
          <mxGeometry width="50" height="50" relative="1" as="geometry">
            <mxPoint y="60" as="sourcePoint" />
            <mxPoint as="targetPoint" />
          </mxGeometry>
        </mxCell>
        <mxCell id="s-OFZmNKzyaStpA8e9eA-32" value="range" style="group;verticalAlign=middle;fontSize=18;connectable=1;strokeWidth=0;perimeterSpacing=0;" parent="1" connectable="0" vertex="1">
          <mxGeometry x="40" y="400" width="150" height="60" as="geometry" />
        </mxCell>
        <mxCell id="s-OFZmNKzyaStpA8e9eA-33" value="" style="endArrow=none;html=1;rounded=0;strokeWidth=1;" parent="s-OFZmNKzyaStpA8e9eA-32" edge="1">
          <mxGeometry width="50" height="50" relative="1" as="geometry">
            <mxPoint as="sourcePoint" />
            <mxPoint x="120" as="targetPoint" />
          </mxGeometry>
        </mxCell>
        <mxCell id="s-OFZmNKzyaStpA8e9eA-34" value="" style="endArrow=none;html=1;rounded=0;" parent="s-OFZmNKzyaStpA8e9eA-32" edge="1">
          <mxGeometry width="50" height="50" relative="1" as="geometry">
            <mxPoint y="60" as="sourcePoint" />
            <mxPoint x="120" y="60" as="targetPoint" />
          </mxGeometry>
        </mxCell>
        <mxCell id="s-OFZmNKzyaStpA8e9eA-35" value="" style="endArrow=none;html=1;rounded=0;" parent="s-OFZmNKzyaStpA8e9eA-32" edge="1">
          <mxGeometry width="50" height="50" relative="1" as="geometry">
            <mxPoint x="120" as="sourcePoint" />
            <mxPoint x="150" y="30" as="targetPoint" />
          </mxGeometry>
        </mxCell>
        <mxCell id="s-OFZmNKzyaStpA8e9eA-36" value="" style="endArrow=none;html=1;rounded=0;" parent="s-OFZmNKzyaStpA8e9eA-32" edge="1">
          <mxGeometry width="50" height="50" relative="1" as="geometry">
            <mxPoint x="120" y="60" as="sourcePoint" />
            <mxPoint x="150" y="30" as="targetPoint" />
          </mxGeometry>
        </mxCell>
        <mxCell id="s-OFZmNKzyaStpA8e9eA-37" value="" style="endArrow=none;html=1;rounded=0;" parent="s-OFZmNKzyaStpA8e9eA-32" edge="1">
          <mxGeometry width="50" height="50" relative="1" as="geometry">
            <mxPoint y="60" as="sourcePoint" />
            <mxPoint as="targetPoint" />
          </mxGeometry>
        </mxCell>
        <mxCell id="s-OFZmNKzyaStpA8e9eA-39" value="" style="endArrow=block;html=1;rounded=0;exitX=1;exitY=0.5;exitDx=0;exitDy=0;endFill=1;strokeWidth=3;entryX=0;entryY=0.25;entryDx=0;entryDy=0;" parent="1" source="s-OFZmNKzyaStpA8e9eA-7" target="s-OFZmNKzyaStpA8e9eA-13" edge="1">
          <mxGeometry width="50" height="50" relative="1" as="geometry">
            <mxPoint x="190" y="80" as="sourcePoint" />
            <mxPoint x="320" y="190" as="targetPoint" />
          </mxGeometry>
        </mxCell>
        <mxCell id="s-OFZmNKzyaStpA8e9eA-41" value="" style="endArrow=block;html=1;rounded=0;endFill=1;strokeWidth=3;exitX=1;exitY=0.5;exitDx=0;exitDy=0;entryX=0.013;entryY=0.617;entryDx=0;entryDy=0;entryPerimeter=0;" parent="1" source="s-OFZmNKzyaStpA8e9eA-26" target="s-OFZmNKzyaStpA8e9eA-13" edge="1">
          <mxGeometry width="50" height="50" relative="1" as="geometry">
            <mxPoint x="190" y="270" as="sourcePoint" />
            <mxPoint x="290" y="220" as="targetPoint" />
          </mxGeometry>
        </mxCell>
        <mxCell id="s-OFZmNKzyaStpA8e9eA-43" value="" style="endArrow=block;html=1;rounded=0;exitX=1;exitY=0.5;exitDx=0;exitDy=0;endFill=1;strokeWidth=3;entryX=0;entryY=0.75;entryDx=0;entryDy=0;" parent="1" source="s-OFZmNKzyaStpA8e9eA-32" target="s-OFZmNKzyaStpA8e9eA-13" edge="1">
          <mxGeometry width="50" height="50" relative="1" as="geometry">
            <mxPoint x="200" y="280" as="sourcePoint" />
            <mxPoint x="340" y="250" as="targetPoint" />
          </mxGeometry>
        </mxCell>
        <mxCell id="s-OFZmNKzyaStpA8e9eA-44" value="" style="endArrow=block;html=1;rounded=0;exitX=1;exitY=0.5;exitDx=0;exitDy=0;entryX=0;entryY=0.5;entryDx=0;entryDy=0;endFill=1;strokeWidth=3;" parent="1" source="s-OFZmNKzyaStpA8e9eA-13" target="s-OFZmNKzyaStpA8e9eA-1" edge="1">
          <mxGeometry width="50" height="50" relative="1" as="geometry">
            <mxPoint x="200" y="90" as="sourcePoint" />
            <mxPoint x="350" y="220" as="targetPoint" />
          </mxGeometry>
        </mxCell>
        <mxCell id="s-OFZmNKzyaStpA8e9eA-46" value="" style="endArrow=block;html=1;rounded=0;exitX=1;exitY=0.5;exitDx=0;exitDy=0;endFill=1;strokeWidth=3;entryX=0.013;entryY=0.4;entryDx=0;entryDy=0;entryPerimeter=0;" parent="1" source="s-OFZmNKzyaStpA8e9eA-20" target="s-OFZmNKzyaStpA8e9eA-13" edge="1">
          <mxGeometry width="50" height="50" relative="1" as="geometry">
            <mxPoint x="200" y="120" as="sourcePoint" />
            <mxPoint x="280" y="200" as="targetPoint" />
          </mxGeometry>
        </mxCell>
        <mxCell id="Pix2iU_TbnOSNOThwd7Q-7" value="observe" style="group;verticalAlign=middle;fontSize=18;connectable=1;strokeWidth=0;perimeterSpacing=0;" parent="1" connectable="0" vertex="1">
          <mxGeometry x="640" y="400" width="120" height="60" as="geometry" />
        </mxCell>
        <mxCell id="Pix2iU_TbnOSNOThwd7Q-8" value="" style="endArrow=none;html=1;rounded=0;" parent="Pix2iU_TbnOSNOThwd7Q-7" edge="1">
          <mxGeometry width="50" height="50" relative="1" as="geometry">
            <mxPoint as="sourcePoint" />
            <mxPoint x="120" as="targetPoint" />
          </mxGeometry>
        </mxCell>
        <mxCell id="Pix2iU_TbnOSNOThwd7Q-9" value="" style="endArrow=none;html=1;rounded=0;" parent="Pix2iU_TbnOSNOThwd7Q-7" edge="1">
          <mxGeometry width="50" height="50" relative="1" as="geometry">
            <mxPoint y="60" as="sourcePoint" />
            <mxPoint x="120" y="60" as="targetPoint" />
          </mxGeometry>
        </mxCell>
        <mxCell id="Pix2iU_TbnOSNOThwd7Q-10" value="" style="endArrow=none;html=1;rounded=0;" parent="Pix2iU_TbnOSNOThwd7Q-7" edge="1">
          <mxGeometry width="50" height="50" relative="1" as="geometry">
            <mxPoint as="sourcePoint" />
            <mxPoint x="30" y="30" as="targetPoint" />
          </mxGeometry>
        </mxCell>
        <mxCell id="Pix2iU_TbnOSNOThwd7Q-11" value="" style="endArrow=none;html=1;rounded=0;" parent="Pix2iU_TbnOSNOThwd7Q-7" edge="1">
          <mxGeometry width="50" height="50" relative="1" as="geometry">
            <mxPoint y="60" as="sourcePoint" />
            <mxPoint x="30" y="30" as="targetPoint" />
          </mxGeometry>
        </mxCell>
        <mxCell id="Pix2iU_TbnOSNOThwd7Q-12" value="" style="endArrow=none;html=1;rounded=0;" parent="Pix2iU_TbnOSNOThwd7Q-7" edge="1">
          <mxGeometry width="50" height="50" relative="1" as="geometry">
            <mxPoint x="120" y="60" as="sourcePoint" />
            <mxPoint x="120" as="targetPoint" />
          </mxGeometry>
        </mxCell>
        <mxCell id="Pix2iU_TbnOSNOThwd7Q-13" value="" style="endArrow=block;html=1;rounded=0;endFill=1;strokeWidth=3;entryX=0;entryY=0.5;entryDx=0;entryDy=0;dashed=1;exitX=1;exitY=0.5;exitDx=0;exitDy=0;" parent="1" source="s-OFZmNKzyaStpA8e9eA-7" target="Pix2iU_TbnOSNOThwd7Q-7" edge="1">
          <mxGeometry width="50" height="50" relative="1" as="geometry">
            <mxPoint x="190" y="110" as="sourcePoint" />
            <mxPoint x="360" y="120" as="targetPoint" />
          </mxGeometry>
        </mxCell>
        <mxCell id="XNZ4wq165izyP7SDHVai-1" value="plot" style="group;verticalAlign=middle;fontSize=18;connectable=1;strokeWidth=0;perimeterSpacing=0;" parent="1" connectable="0" vertex="1">
          <mxGeometry x="640" y="280" width="120" height="60" as="geometry" />
        </mxCell>
        <mxCell id="XNZ4wq165izyP7SDHVai-2" value="" style="endArrow=none;html=1;rounded=0;" parent="XNZ4wq165izyP7SDHVai-1" edge="1">
          <mxGeometry width="50" height="50" relative="1" as="geometry">
            <mxPoint as="sourcePoint" />
            <mxPoint x="120" as="targetPoint" />
          </mxGeometry>
        </mxCell>
        <mxCell id="XNZ4wq165izyP7SDHVai-3" value="" style="endArrow=none;html=1;rounded=0;" parent="XNZ4wq165izyP7SDHVai-1" edge="1">
          <mxGeometry width="50" height="50" relative="1" as="geometry">
            <mxPoint y="60" as="sourcePoint" />
            <mxPoint x="120" y="60" as="targetPoint" />
          </mxGeometry>
        </mxCell>
        <mxCell id="XNZ4wq165izyP7SDHVai-4" value="" style="endArrow=none;html=1;rounded=0;" parent="XNZ4wq165izyP7SDHVai-1" edge="1">
          <mxGeometry width="50" height="50" relative="1" as="geometry">
            <mxPoint as="sourcePoint" />
            <mxPoint x="30" y="30" as="targetPoint" />
          </mxGeometry>
        </mxCell>
        <mxCell id="XNZ4wq165izyP7SDHVai-5" value="" style="endArrow=none;html=1;rounded=0;" parent="XNZ4wq165izyP7SDHVai-1" edge="1">
          <mxGeometry width="50" height="50" relative="1" as="geometry">
            <mxPoint y="60" as="sourcePoint" />
            <mxPoint x="30" y="30" as="targetPoint" />
          </mxGeometry>
        </mxCell>
        <mxCell id="XNZ4wq165izyP7SDHVai-6" value="" style="endArrow=none;html=1;rounded=0;" parent="XNZ4wq165izyP7SDHVai-1" edge="1">
          <mxGeometry width="50" height="50" relative="1" as="geometry">
            <mxPoint x="120" y="60" as="sourcePoint" />
            <mxPoint x="120" as="targetPoint" />
          </mxGeometry>
        </mxCell>
        <mxCell id="XNZ4wq165izyP7SDHVai-7" value="map" style="group;verticalAlign=middle;fontSize=18;connectable=1;strokeWidth=0;perimeterSpacing=0;" parent="1" connectable="0" vertex="1">
          <mxGeometry x="640" y="160" width="120" height="60" as="geometry" />
        </mxCell>
        <mxCell id="XNZ4wq165izyP7SDHVai-8" value="" style="endArrow=none;html=1;rounded=0;" parent="XNZ4wq165izyP7SDHVai-7" edge="1">
          <mxGeometry width="50" height="50" relative="1" as="geometry">
            <mxPoint as="sourcePoint" />
            <mxPoint x="120" as="targetPoint" />
          </mxGeometry>
        </mxCell>
        <mxCell id="XNZ4wq165izyP7SDHVai-9" value="" style="endArrow=none;html=1;rounded=0;" parent="XNZ4wq165izyP7SDHVai-7" edge="1">
          <mxGeometry width="50" height="50" relative="1" as="geometry">
            <mxPoint y="60" as="sourcePoint" />
            <mxPoint x="120" y="60" as="targetPoint" />
          </mxGeometry>
        </mxCell>
        <mxCell id="XNZ4wq165izyP7SDHVai-10" value="" style="endArrow=none;html=1;rounded=0;" parent="XNZ4wq165izyP7SDHVai-7" edge="1">
          <mxGeometry width="50" height="50" relative="1" as="geometry">
            <mxPoint as="sourcePoint" />
            <mxPoint x="30" y="30" as="targetPoint" />
          </mxGeometry>
        </mxCell>
        <mxCell id="XNZ4wq165izyP7SDHVai-11" value="" style="endArrow=none;html=1;rounded=0;" parent="XNZ4wq165izyP7SDHVai-7" edge="1">
          <mxGeometry width="50" height="50" relative="1" as="geometry">
            <mxPoint y="60" as="sourcePoint" />
            <mxPoint x="30" y="30" as="targetPoint" />
          </mxGeometry>
        </mxCell>
        <mxCell id="XNZ4wq165izyP7SDHVai-12" value="" style="endArrow=none;html=1;rounded=0;" parent="XNZ4wq165izyP7SDHVai-7" edge="1">
          <mxGeometry width="50" height="50" relative="1" as="geometry">
            <mxPoint x="120" y="60" as="sourcePoint" />
            <mxPoint x="120" as="targetPoint" />
          </mxGeometry>
        </mxCell>
        <mxCell id="XNZ4wq165izyP7SDHVai-13" value="" style="endArrow=block;html=1;rounded=0;endFill=1;strokeWidth=3;entryX=0;entryY=0.5;entryDx=0;entryDy=0;exitX=1;exitY=0.5;exitDx=0;exitDy=0;" parent="1" source="s-OFZmNKzyaStpA8e9eA-7" target="XNZ4wq165izyP7SDHVai-1" edge="1">
          <mxGeometry width="50" height="50" relative="1" as="geometry">
            <mxPoint x="190" y="110" as="sourcePoint" />
            <mxPoint x="309" y="225" as="targetPoint" />
          </mxGeometry>
        </mxCell>
        <mxCell id="XNZ4wq165izyP7SDHVai-14" value="" style="endArrow=block;html=1;rounded=0;exitX=1;exitY=0.5;exitDx=0;exitDy=0;endFill=1;strokeWidth=3;entryX=0;entryY=0.75;entryDx=0;entryDy=0;" parent="1" source="s-OFZmNKzyaStpA8e9eA-20" target="XNZ4wq165izyP7SDHVai-1" edge="1">
          <mxGeometry width="50" height="50" relative="1" as="geometry">
            <mxPoint x="210" y="130" as="sourcePoint" />
            <mxPoint x="319" y="235" as="targetPoint" />
          </mxGeometry>
        </mxCell>
        <mxCell id="XNZ4wq165izyP7SDHVai-15" value="" style="endArrow=block;html=1;rounded=0;exitX=1;exitY=0.5;exitDx=0;exitDy=0;endFill=1;strokeWidth=3;entryX=0.017;entryY=0.15;entryDx=0;entryDy=0;entryPerimeter=0;" parent="1" source="s-OFZmNKzyaStpA8e9eA-13" target="XNZ4wq165izyP7SDHVai-1" edge="1">
          <mxGeometry width="50" height="50" relative="1" as="geometry">
            <mxPoint x="220" y="140" as="sourcePoint" />
            <mxPoint x="610" y="260" as="targetPoint" />
          </mxGeometry>
        </mxCell>
        <mxCell id="XNZ4wq165izyP7SDHVai-16" value="" style="endArrow=block;html=1;rounded=0;endFill=1;strokeWidth=3;entryX=0;entryY=0.25;entryDx=0;entryDy=0;exitX=1;exitY=0.5;exitDx=0;exitDy=0;" parent="1" source="s-OFZmNKzyaStpA8e9eA-13" target="XNZ4wq165izyP7SDHVai-7" edge="1">
          <mxGeometry width="50" height="50" relative="1" as="geometry">
            <mxPoint x="190" y="110" as="sourcePoint" />
            <mxPoint x="540" y="305" as="targetPoint" />
          </mxGeometry>
        </mxCell>
        <mxCell id="XNZ4wq165izyP7SDHVai-17" value="" style="endArrow=block;html=1;rounded=0;endFill=1;strokeWidth=3;entryX=0;entryY=0.25;entryDx=0;entryDy=0;exitX=1;exitY=0.5;exitDx=0;exitDy=0;" parent="1" source="s-OFZmNKzyaStpA8e9eA-7" target="s-OFZmNKzyaStpA8e9eA-13" edge="1">
          <mxGeometry width="50" height="50" relative="1" as="geometry">
            <mxPoint x="190" y="70" as="sourcePoint" />
            <mxPoint x="640" y="75" as="targetPoint" />
          </mxGeometry>
        </mxCell>
        <mxCell id="s-OFZmNKzyaStpA8e9eA-13" value="filtered" style="group;verticalAlign=middle;fontSize=18;connectable=1;strokeWidth=0;perimeterSpacing=0;" parent="1" connectable="0" vertex="1">
          <mxGeometry x="350" y="40" width="150" height="60" as="geometry" />
        </mxCell>
        <mxCell id="s-OFZmNKzyaStpA8e9eA-14" value="" style="endArrow=none;html=1;rounded=0;" parent="s-OFZmNKzyaStpA8e9eA-13" edge="1">
          <mxGeometry width="50" height="50" relative="1" as="geometry">
            <mxPoint as="sourcePoint" />
            <mxPoint x="120" as="targetPoint" />
          </mxGeometry>
        </mxCell>
        <mxCell id="s-OFZmNKzyaStpA8e9eA-15" value="" style="endArrow=none;html=1;rounded=0;" parent="s-OFZmNKzyaStpA8e9eA-13" edge="1">
          <mxGeometry width="50" height="50" relative="1" as="geometry">
            <mxPoint y="60" as="sourcePoint" />
            <mxPoint x="120" y="60" as="targetPoint" />
          </mxGeometry>
        </mxCell>
        <mxCell id="s-OFZmNKzyaStpA8e9eA-16" value="" style="endArrow=none;html=1;rounded=0;" parent="s-OFZmNKzyaStpA8e9eA-13" edge="1">
          <mxGeometry width="50" height="50" relative="1" as="geometry">
            <mxPoint y="60" as="sourcePoint" />
            <mxPoint x="30" y="30" as="targetPoint" />
          </mxGeometry>
        </mxCell>
        <mxCell id="s-OFZmNKzyaStpA8e9eA-17" value="" style="endArrow=none;html=1;rounded=0;" parent="s-OFZmNKzyaStpA8e9eA-13" edge="1">
          <mxGeometry width="50" height="50" relative="1" as="geometry">
            <mxPoint as="sourcePoint" />
            <mxPoint x="30" y="30" as="targetPoint" />
          </mxGeometry>
        </mxCell>
        <mxCell id="s-OFZmNKzyaStpA8e9eA-18" value="" style="endArrow=none;html=1;rounded=0;" parent="s-OFZmNKzyaStpA8e9eA-13" edge="1">
          <mxGeometry width="50" height="50" relative="1" as="geometry">
            <mxPoint x="120" as="sourcePoint" />
            <mxPoint x="150" y="30" as="targetPoint" />
          </mxGeometry>
        </mxCell>
        <mxCell id="s-OFZmNKzyaStpA8e9eA-19" value="" style="endArrow=none;html=1;rounded=0;" parent="s-OFZmNKzyaStpA8e9eA-13" edge="1">
          <mxGeometry width="50" height="50" relative="1" as="geometry">
            <mxPoint x="120" y="60" as="sourcePoint" />
            <mxPoint x="150" y="30" as="targetPoint" />
          </mxGeometry>
        </mxCell>
        <mxCell id="f4w-3Br7uQ7NkYJ2W_hv-1" value="range" style="group;verticalAlign=middle;fontSize=18;connectable=1;strokeWidth=0;perimeterSpacing=0;" connectable="0" vertex="1" parent="1">
          <mxGeometry x="180" y="480" width="150" height="60" as="geometry" />
        </mxCell>
        <mxCell id="f4w-3Br7uQ7NkYJ2W_hv-2" value="" style="endArrow=none;html=1;rounded=0;strokeWidth=1;" edge="1" parent="f4w-3Br7uQ7NkYJ2W_hv-1">
          <mxGeometry width="50" height="50" relative="1" as="geometry">
            <mxPoint as="sourcePoint" />
            <mxPoint x="120" as="targetPoint" />
          </mxGeometry>
        </mxCell>
        <mxCell id="f4w-3Br7uQ7NkYJ2W_hv-3" value="" style="endArrow=none;html=1;rounded=0;" edge="1" parent="f4w-3Br7uQ7NkYJ2W_hv-1">
          <mxGeometry width="50" height="50" relative="1" as="geometry">
            <mxPoint y="60" as="sourcePoint" />
            <mxPoint x="120" y="60" as="targetPoint" />
          </mxGeometry>
        </mxCell>
        <mxCell id="f4w-3Br7uQ7NkYJ2W_hv-4" value="" style="endArrow=none;html=1;rounded=0;" edge="1" parent="f4w-3Br7uQ7NkYJ2W_hv-1">
          <mxGeometry width="50" height="50" relative="1" as="geometry">
            <mxPoint x="120" as="sourcePoint" />
            <mxPoint x="150" y="30" as="targetPoint" />
          </mxGeometry>
        </mxCell>
        <mxCell id="f4w-3Br7uQ7NkYJ2W_hv-5" value="" style="endArrow=none;html=1;rounded=0;" edge="1" parent="f4w-3Br7uQ7NkYJ2W_hv-1">
          <mxGeometry width="50" height="50" relative="1" as="geometry">
            <mxPoint x="120" y="60" as="sourcePoint" />
            <mxPoint x="150" y="30" as="targetPoint" />
          </mxGeometry>
        </mxCell>
        <mxCell id="f4w-3Br7uQ7NkYJ2W_hv-6" value="" style="endArrow=none;html=1;rounded=0;" edge="1" parent="f4w-3Br7uQ7NkYJ2W_hv-1">
          <mxGeometry width="50" height="50" relative="1" as="geometry">
            <mxPoint y="60" as="sourcePoint" />
            <mxPoint as="targetPoint" />
          </mxGeometry>
        </mxCell>
        <mxCell id="f4w-3Br7uQ7NkYJ2W_hv-7" value="anotherreative" style="group;verticalAlign=middle;fontSize=18;connectable=1;strokeWidth=0;perimeterSpacing=0;" connectable="0" vertex="1" parent="1">
          <mxGeometry x="370" y="410" width="150" height="60" as="geometry" />
        </mxCell>
        <mxCell id="f4w-3Br7uQ7NkYJ2W_hv-8" value="" style="endArrow=none;html=1;rounded=0;" edge="1" parent="f4w-3Br7uQ7NkYJ2W_hv-7">
          <mxGeometry width="50" height="50" relative="1" as="geometry">
            <mxPoint as="sourcePoint" />
            <mxPoint x="120" as="targetPoint" />
          </mxGeometry>
        </mxCell>
        <mxCell id="f4w-3Br7uQ7NkYJ2W_hv-9" value="" style="endArrow=none;html=1;rounded=0;" edge="1" parent="f4w-3Br7uQ7NkYJ2W_hv-7">
          <mxGeometry width="50" height="50" relative="1" as="geometry">
            <mxPoint y="60" as="sourcePoint" />
            <mxPoint x="120" y="60" as="targetPoint" />
          </mxGeometry>
        </mxCell>
        <mxCell id="f4w-3Br7uQ7NkYJ2W_hv-10" value="" style="endArrow=none;html=1;rounded=0;" edge="1" parent="f4w-3Br7uQ7NkYJ2W_hv-7">
          <mxGeometry width="50" height="50" relative="1" as="geometry">
            <mxPoint y="60" as="sourcePoint" />
            <mxPoint x="30" y="30" as="targetPoint" />
          </mxGeometry>
        </mxCell>
        <mxCell id="f4w-3Br7uQ7NkYJ2W_hv-11" value="" style="endArrow=none;html=1;rounded=0;" edge="1" parent="f4w-3Br7uQ7NkYJ2W_hv-7">
          <mxGeometry width="50" height="50" relative="1" as="geometry">
            <mxPoint as="sourcePoint" />
            <mxPoint x="30" y="30" as="targetPoint" />
          </mxGeometry>
        </mxCell>
        <mxCell id="f4w-3Br7uQ7NkYJ2W_hv-12" value="" style="endArrow=none;html=1;rounded=0;" edge="1" parent="f4w-3Br7uQ7NkYJ2W_hv-7">
          <mxGeometry width="50" height="50" relative="1" as="geometry">
            <mxPoint x="120" as="sourcePoint" />
            <mxPoint x="150" y="30" as="targetPoint" />
          </mxGeometry>
        </mxCell>
        <mxCell id="f4w-3Br7uQ7NkYJ2W_hv-13" value="" style="endArrow=none;html=1;rounded=0;" edge="1" parent="f4w-3Br7uQ7NkYJ2W_hv-7">
          <mxGeometry width="50" height="50" relative="1" as="geometry">
            <mxPoint x="120" y="60" as="sourcePoint" />
            <mxPoint x="150" y="30" as="targetPoint" />
          </mxGeometry>
        </mxCell>
      </root>
    </mxGraphModel>
  </diagram>
</mxfile>
